<svg width="96" height="96" xmlns="http://www.w3.org/2000/svg" xmlns:xlink="http://www.w3.org/1999/xlink" xml:space="preserve" overflow="hidden"><g transform="translate(-862 -202)"><path d="M872 223 872 277 948 277 948 223ZM912.122 257.464C910.948 258.631 909.052 258.631 907.878 257.464L875.431 225.017C875.427 225.013 875.427 225.007 875.431 225.003 875.433 225.001 875.435 225 875.438 225L944.562 225C944.568 225 944.572 225.005 944.572 225.01 944.572 225.013 944.571 225.015 944.569 225.017ZM897.586 250 874.017 273.569C874.013 273.573 874.007 273.573 874.003 273.569 874.001 273.567 874 273.565 874 273.562L874 226.438C874 226.432 874.005 226.428 874.01 226.428 874.013 226.428 874.015 226.429 874.017 226.431ZM899 251.414 906.464 258.878C908.416 260.831 911.582 260.831 913.535 258.879 913.535 258.879 913.536 258.878 913.536 258.878L921 251.414 944.569 274.983C944.573 274.987 944.573 274.993 944.569 274.997 944.567 274.999 944.565 275 944.562 275L875.438 275C875.432 275 875.428 274.995 875.428 274.99 875.428 274.987 875.429 274.985 875.431 274.983ZM922.414 250 945.983 226.431C945.987 226.427 945.993 226.427 945.997 226.431 945.999 226.433 946 226.435 946 226.438L946 273.562C946 273.568 945.995 273.572 945.99 273.572 945.987 273.572 945.985 273.571 945.983 273.569Z"/></g></svg>