<svg width="96" height="96" xmlns="http://www.w3.org/2000/svg" xmlns:xlink="http://www.w3.org/1999/xlink" xml:space="preserve" overflow="hidden"><g transform="translate(-324 -392)"><path d="M363.5 436.6C363.5 441.571 359.471 445.6 354.5 445.6 349.529 445.6 345.5 441.571 345.5 436.6 345.5 431.629 349.529 427.6 354.5 427.6 359.471 427.6 363.5 431.629 363.5 436.6Z"/><path d="M396.5 480 396.5 471C396.537 469.575 395.862 468.225 394.7 467.4 392.11 465.372 389.105 463.939 385.9 463.2 383.497 462.478 381.009 462.074 378.5 462 375.986 462.008 373.488 462.413 371.1 463.2 367.94 464.065 364.96 465.487 362.3 467.4 361.172 468.254 360.506 469.585 360.5 471L360.5 480Z"/><path d="M387.5 450.6C387.5 455.571 383.471 459.6 378.5 459.6 373.529 459.6 369.5 455.571 369.5 450.6 369.5 445.629 373.529 441.6 378.5 441.6 383.471 441.6 387.5 445.629 387.5 450.6Z"/><path d="M359.9 464.2 359.9 464.2C362.708 462.196 365.812 460.644 369.1 459.6 366.826 457.23 365.539 454.084 365.5 450.8L365.5 450.4C364.332 449.91 363.128 449.509 361.9 449.2 359.497 448.478 357.009 448.074 354.5 448 351.986 448.008 349.488 448.413 347.1 449.2 343.972 450.15 341.005 451.565 338.3 453.4 337.138 454.225 336.463 455.575 336.5 457L336.5 466 358.1 466C358.596 465.304 359.204 464.696 359.9 464.2Z"/><path d="M405.35 400 367.58 400C366.424 400.011 365.494 400.954 365.5 402.11L365.5 427.86C365.478 429.02 366.4 429.978 367.56 430 367.566 430 367.573 430 367.58 430L373.58 430 373.58 438.44 381.87 430 405.35 430C406.508 429.989 407.44 429.048 407.44 427.89L407.44 402.11C407.44 400.952 406.508 400.011 405.35 400ZM386.29 426.25C385.064 426.25 384.07 425.256 384.07 424.03 384.07 422.804 385.064 421.81 386.29 421.81 387.505 421.81 388.494 422.786 388.51 424 388.532 425.22 387.561 426.228 386.34 426.25 386.324 426.25 386.307 426.25 386.29 426.25ZM387.72 417.1 387.72 420.25 384.87 420.25 384.87 414.36 386.29 414.36C388.77 414.36 390.37 412.91 390.37 410.68 390.409 408.471 388.65 406.649 386.441 406.61 386.391 406.609 386.341 406.609 386.29 406.61 384.233 406.419 382.411 407.931 382.22 409.988 382.199 410.218 382.199 410.45 382.22 410.68L382.22 410.93 379.37 410.93 379.37 410.68C379.154 407.069 381.906 403.967 385.517 403.751 385.775 403.735 386.033 403.735 386.29 403.75 390.073 403.706 393.176 406.736 393.22 410.519 393.221 410.573 393.221 410.626 393.22 410.68 393.317 413.918 390.935 416.699 387.72 417.1Z"/></g></svg>