<svg width="96" height="96" xmlns="http://www.w3.org/2000/svg" xmlns:xlink="http://www.w3.org/1999/xlink" xml:space="preserve" overflow="hidden"><g transform="translate(-722 -326)"><path d="M751 352C752.7 352 754 350.7 754 349L754 343C754 341.3 752.7 340 751 340 749.3 340 748 341.3 748 343L748 349C748 350.7 749.3 352 751 352Z"/><path d="M742 394 758 394 758 402 742 402 742 394ZM742 382 758 382 758 390 742 390 742 382ZM742 370 758 370 758 378 742 378 742 370ZM778 370 778 378 762 378 762 370 778 370ZM798 370 798 378 782 378 782 370 798 370ZM798 390 782 390 782 382 798 382 798 390ZM798 402 782 402 782 394 798 394 798 402ZM762 390 762 382 778 382 778 390 762 390ZM762 402 762 394 778 394 778 402 762 402ZM736 408 804 408 804 364 736 364 736 408Z"/><path d="M789 352C790.7 352 792 350.7 792 349L792 343C792 341.3 790.7 340 789 340 787.3 340 786 341.3 786 343L786 349C786 350.7 787.3 352 789 352Z"/><path d="M796 346 796 349C796 352.9 792.9 356 789 356 785.1 356 782 352.9 782 349L782 346 758 346 758 349C758 352.9 754.9 356 751 356 747.1 356 744 352.9 744 349L744 346 736 346 736 360 804 360 804 346 796 346Z"/></g></svg>