<svg width="96" height="96" xmlns="http://www.w3.org/2000/svg" xmlns:xlink="http://www.w3.org/1999/xlink" xml:space="preserve" overflow="hidden"><g transform="translate(-592 -312)"><path d="M679.57 367.39 657.335 328.877C656.842 328.093 656.018 327.578 655.098 327.477 654.222 327.374 653.347 327.677 652.724 328.301L607.478 371.956 600.742 378.41 608.5 391.854 617.414 389.077 630.028 385.5 629.728 385.775 635.2 391.815 652.484 387.039 654.084 378.874 653.672 378.794 677.888 371.926 678 371.887C678.886 371.509 679.564 370.764 679.856 369.846 680.126 369.025 680.021 368.127 679.57 367.39ZM603.258 378.77 607.97 374.254 615.633 387.536 609.433 389.469ZM650.758 385.441 635.858 389.56 631.736 385.015 651.967 379.277ZM677.947 369.246C677.84 369.586 677.597 369.867 677.275 370.021L617.6 386.944 609.456 372.826 654.125 329.726C654.322 329.526 654.601 329.429 654.88 329.462 655.183 329.495 655.457 329.661 655.626 329.915L677.861 368.427C678.009 368.674 678.041 368.974 677.947 369.246Z"/></g></svg>