<svg width="96" height="96" xmlns="http://www.w3.org/2000/svg" xmlns:xlink="http://www.w3.org/1999/xlink" xml:space="preserve" overflow="hidden"><g transform="translate(-651 -202)"><path d="M737.7 272.62 723.9 258.82C722.217 257.108 719.465 257.084 717.753 258.767 717.735 258.785 717.717 258.802 717.7 258.82L710.3 266.52C709.46 267.32 708.14 267.32 707.3 266.52L682.5 241.811C681.7 240.971 681.7 239.651 682.5 238.811L690.2 231.211C691.912 229.526 691.934 226.773 690.25 225.061 690.233 225.044 690.217 225.027 690.2 225.011L676.4 211.3C675.608 210.491 674.531 210.025 673.4 210 672.239 210.024 671.13 210.488 670.3 211.3L662.4 219.2C660.409 221.041 659.223 223.591 659.1 226.3 658.96 230.746 659.743 235.172 661.4 239.3 663.045 242.991 665.055 246.509 667.4 249.8 675.549 262.088 685.887 272.773 697.9 281.322 699.9 282.806 702.006 284.143 704.2 285.322 709.169 287.935 714.608 289.533 720.2 290.022 720.521 290.047 720.841 290.059 721.161 290.06 724.667 290.048 728.012 288.586 730.401 286.02L737.601 278.82C738.428 278 738.896 276.885 738.901 275.72 738.932 274.567 738.5 273.451 737.7 272.62ZM671.711 212.72C672.167 212.282 672.768 212.025 673.4 212 674.003 212.029 674.572 212.286 674.991 212.72L688.791 226.42C689.722 227.323 689.745 228.81 688.842 229.742 688.828 229.756 688.814 229.77 688.8 229.784L685.98 232.566 668.923 215.51ZM728.99 284.609 728.963 284.636 728.938 284.663C726.93 286.824 724.115 288.056 721.164 288.063 720.896 288.063 720.626 288.052 720.343 288.03 715.024 287.563 709.852 286.039 705.129 283.55 703.03 282.421 701.015 281.142 699.1 279.722L699.079 279.706 699.056 279.69C687.229 271.284 677.054 260.768 669.042 248.67 666.784 245.506 664.848 242.125 663.262 238.576 662.09 235.286 660.8 230.946 661.1 226.44L661.1 226.41 661.1 226.381C661.207 224.195 662.169 222.138 663.779 220.655L663.798 220.637 663.816 220.619 667.51 216.924 684.557 233.971 681.087 237.4C679.504 239.022 679.504 241.61 681.087 243.232L705.887 267.932C707.519 269.524 710.127 269.512 711.744 267.904L715.049 264.464 732.092 281.506ZM736.19 277.409 733.506 280.094 716.435 263.022 719.118 260.23C720.019 259.299 721.504 259.275 722.435 260.176 722.453 260.194 722.471 260.212 722.489 260.23L736.289 274.03C737.146 275.007 737.102 276.479 736.189 277.403Z"/></g></svg>